# AST/ASF file generated using VICON BodyLanguage
# -----------------------------------------------
:version 1.10
:name VICON
:units
  mass 1.0
  length 0.45
  angle deg
:documentation
   .ast/.asf automatically generated from VICON data using
   VICON BodyBuilder and BodyLanguage model FoxedUp or BRILLIANT.MOD
:root
   order TX TY TZ RX RY RZ
   axis XYZ
   position 0 0 0  
   orientation 0 0 0 
:bonedata
  begin
     id 1 
     name lhipjoint
     direction 0.623415 -0.642378 0.445763 
     length 2.49859 
     axis 0 0 0  XYZ
  end
  begin
     id 2 
     name lfemur
     direction 0.34202 -0.939693 0  
     length 6.69689  
     axis 0 0 20  XYZ
    dof rx ry rz
    limits (-160.0 20.0)
           (-70.0 70.0)
           (-60.0 70.0)
  end
  begin
     id 3 
     name ltibia
     direction 0.34202 -0.939693 0   
     length 7.37574   
     axis 0 0 20   XYZ
    dof rx
    limits (-10.0 170.0)
  end
  begin
     id 4 
     name lfoot
     direction 0.084323 -0.231675 0.969132   
     length 2.09111   
     axis -90 7.62852e-016 20   XYZ
    dof rx rz
    limits (-45.0 90.0)
           (-70.0 20.0)
  end
  begin
     id 5 
     name ltoes
     direction 1.5357e-011 -4.21957e-011 1   
     length 1.04989   
     axis -90 7.62852e-016 20   XYZ
    dof rx
    limits (-90.0 20.0)
  end
  begin
     id 6 
     name rhipjoint
     direction -0.605402 -0.653903 0.45376   
     length 2.45455  
     axis 0 0 0  XYZ 
  end
  begin
     id 7 
     name rfemur
     direction -0.34202 -0.939693 0   
     length 6.64523   
     axis 0 0 -20   XYZ
    dof rx ry rz
    limits (-160.0 20.0)
           (-70.0 70.0)
           (-70.0 60.0)
  end
  begin
     id 8 
     name rtibia
     direction -0.34202 -0.939693 0   
     length 7.3339   
     axis 0 0 -20   XYZ
    dof rx
    limits (-10.0 170.0)
 end
 begin
     id 9 
     name rfoot
     direction -0.120854 -0.332043 0.93549   
     length 2.23135  
     axis -90 -7.62852e-016 -20   XYZ
    dof rx rz
    limits (-45.0 90.0)
           (-20.0 70.0)
  end
  begin
     id 10 
     name rtoes
     direction -1.53563e-011 -4.21914e-011 1   
     length 1.10614   
     axis -90 -7.62852e-016 -20   XYZ
    dof rx
    limits (-90.0 20.0)
  end
  begin
     id 11 
     name lowerback
     direction 0.0319682 0.998615 -0.0417941   
     length 2.02718   
     axis 0 0 0   XYZ
    dof rx ry rz
    limits (-20.0 45.0)
           (-30.0 30.0)
           (-30.0 30.0)
  end
  begin
     id 12 
     name upperback
     direction 7.63181e-005 0.995808 0.0914691   
     length 1.97539   
     axis 0 0 0   XYZ
    dof rx ry rz
    limits (-20.0 45.0)
           (-30.0 30.0)
           (-30.0 30.0)
  end
  begin
     id 13 
     name thorax
     direction -0.016423 0.993627 0.111514   
     length 2.00349   
     axis 0 0 0   XYZ
    dof rx ry rz
    limits (-20.0 45.0)
           (-30.0 30.0)
           (-30.0 30.0)
  end
  begin
     id 14 
     name lowerneck
     direction -0.174763 0.981668 -0.0760716   
     length 1.71436   
     axis 0 0 0   XYZ
    dof rx ry rz
    limits (-20.0 45.0)
           (-30.0 30.0)
           (-30.0 30.0)
  end
  begin
     id 15 
     name upperneck
     direction 0.345458 0.934587 -0.0848868   
     length 1.72805   
     axis 0 0 0   XYZ
    dof rx ry rz
    limits (-20.0 45.0)
           (-30.0 30.0)
           (-30.0 30.0)
  end
  begin
     id 16
     name head
     direction 0.13001 0.989848 -0.0574291  
     length 1.767  
     axis 0 0 0   XYZ
    dof rx ry rz
    limits (-20.0 45.0)
           (-30.0 30.0)
           (-30.0 30.0)
  end
  begin
     id 17 
     name lclavicle
     direction 0.952951 0.290122 0.0878234  
     length 3.54654  
     axis 0 0 0   XYZ
    dof ry rz
    limits (-20.0 10.0)
           (0.0 20.0)
  end
  begin
     id 18 
     name lhumerus
     direction 1 -4.48957e-011 -4.56525e-028   
     length 5.19807   
     axis 180 -30 -90   XYZ
    dof rx ry rz
    limits (-60.0 90.0)
           (-90.0 90.0)
           (-90.0 90.0)
  end
  begin
     id 19
     name lradius
     direction 1 -4.48979e-011 -2.0317e-027   
     length 3.0937   
     axis 180 -30 -90   XYZ
    dof rx
    limits (-10.0 170.0)
  end
  begin
     id 20
     name lwrist
     direction 1 -4.48953e-011 -3.05809e-027   
     length 1.54685   
     axis 8.48514e-016 90 90   XYZ
    dof ry
    limits (-180.0 0.0)
 end
  begin
     id 21 
     name lhand
     direction 1 -4.48952e-011 -6.11639e-027   
     length 0.672632   
     axis 3.9013e-015 90 90   XYZ
    dof rx rz
    limits (-90.0 90.0)
           (-45.0 45.0)
  end
  begin
     id 22 
     name lfingers
     direction 1 -4.48925e-011 -1.22426e-026   
     length 0.542293   
     axis 7.80276e-015 90 90   XYZ
    dof rx
    limits (0.0 90.0)
  end
  begin
     id 23
     name lthumb
     direction 0.707107 -6.3486e-011 0.707107   
     length 0.778628   
     axis -90 45 5.37419e-014   XYZ
    dof rx rz
    limits (-45.0 45.0)
           (-45.0 45.0)
  end
  begin
     id 24 
     name rclavicle
     direction -0.960732 0.273675 -0.0457849   
     length 3.52079  
     axis 0 0 0   XYZ 
    dof ry rz
    limits (-10.0 20.0)
           (-20.0 0.0)
  end
  begin
     id 25 
     name rhumerus
     direction -1 -4.48976e-011 -1.63613e-027  
     length 5.45222   
     axis 180 30 90   XYZ
    dof rx ry rz
    limits (-90.0 60.0)
           (-90.0 90.0)
           (-90.0 90.0)
  end
  begin
     id 26 
     name rradius
     direction -1 -4.48957e-011 -7.00033e-028   
     length 3.01284   
     axis 180 30 90   XYZ
    dof rx
    limits (-10.0 170.0)
  end
  begin
     id 27 
     name rwrist
     direction -1 -4.48983e-011 -3.05543e-027   
     length 1.50642   
     axis 8.48514e-016 -90 -90   XYZ
    dof ry
    limits (-180.0 0.0)
  end
  begin
     id 28
     name rhand
     direction -1 -4.48984e-011 -6.11072e-027   
     length 0.622296   
     axis 3.9013e-015 -90 -90   XYZ
    dof rx rz
    limits (-90.0 90.0)
           (-45.0 45.0)
  end
  begin
     id 29
     name rfingers
     direction -1 -4.48865e-011 -1.22637e-026   
     length 0.501711   
     axis 7.80276e-015 -90 -90   XYZ
    dof rx
    limits (0.0 90.0)
  end
  begin
     id 30
     name rthumb
     direction -0.707107 -6.34932e-011 0.707107   
     length 0.72036   
     axis -90 -45 -5.37419e-014   XYZ
    dof rx rz
    limits (-45.0 45.0)
           (-45.0 45.0)
  end
:hierarchy
  begin
    root lhipjoint rhipjoint lowerback
    lhipjoint lfemur
    lfemur ltibia
    ltibia lfoot
    lfoot ltoes
    rhipjoint rfemur
    rfemur rtibia
    rtibia rfoot
    rfoot rtoes
    lowerback upperback
    upperback thorax
    thorax lowerneck lclavicle rclavicle
    lowerneck upperneck
    upperneck head
    lclavicle lhumerus
    lhumerus lradius
    lradius lwrist
    lwrist lhand lthumb
    lhand lfingers
    rclavicle rhumerus
    rhumerus rradius
    rradius rwrist
    rwrist rhand rthumb
    rhand rfingers
  end

#!OML:ASF H:\Not Pregnant\Project 1\Capture day 1\Session 1\non-pregnant.ASF
:FULLY-SPECIFIED
:DEGREES
243
root 8.27747 15.3417 21.2858 15.5087 22.4132 -2.96553
lowerback -0.976346 2.25958 4.77383
upperback -6.13082 3.14455 -0.831785
thorax -5.52496 1.3231 -3.65026
lowerneck 31.6477 -16.6461 -26.7694
upperneck -26.575 -25.8338 50.4008
head -0.0540431 -18.0149 27.069
rclavicle -4.69132e-014 -3.08116e-015
rhumerus -23.1161 51.2177 -110.351
rradius 119.31
rwrist -9.17734
rhand -16.7357 -1.49228
rfingers 7.12502
rthumb 9.49033 -31.2586
lclavicle -4.69132e-014 -3.08116e-015
lhumerus -70.1472 -3.60058 78.8846
lradius 69.5908
lwrist 50.7479
lhand -25.5452 -6.91843
lfingers 7.12502
lthumb 0.985014 23.059
rfemur -54.339 42.3142 -7.46628
rtibia 44.0021
rfoot 6.89135 44.3214
rtoes 36.052
lfemur -26.6337 -18.8937 -7.76111
ltibia 44.0776
lfoot 44.9685 -23.9052
ltoes 61.24
244
root 8.34217 15.3547 21.1772 15.6085 20.5562 -3.13611
lowerback -0.805417 2.03235 4.85498
upperback -6.13481 2.85832 -0.606174
thorax -5.66251 1.17664 -3.45987
lowerneck 31.0077 -16.4357 -27.0675
upperneck -25.985 -25.7186 50.0248
head 0.115904 -17.8172 26.6389
rclavicle 6.86428e-015 -1.07344e-014
rhumerus -22.6267 51.6644 -110.257
rradius 118.942
rwrist -8.89782
rhand -16.8007 -1.32491
rfingers 7.12502
rthumb 9.42764 -31.0941
lclavicle 6.86428e-015 -1.07344e-014
lhumerus -70.3507 -3.52716 79.1092
lradius 68.4374
lwrist 50.3833
lhand -26.1736 -6.6946
lfingers 7.12502
lthumb 0.378125 23.2848
rfemur -55.4335 42.6814 -8.63785
rtibia 43.3572
rfoot 8.54642 44.3989
rtoes 36.6325
lfemur -26.2851 -17.4533 -8.4665
ltibia 43.7948
lfoot 44.031 -24.6833
ltoes 61.1679
245
root 8.40795 15.3795 21.0719 15.6946 18.6973 -3.31309
lowerback -0.628163 1.80794 4.89883
upperback -6.13579 2.57678 -0.363231
thorax -5.80074 1.03524 -3.22883
lowerneck 30.2973 -16.1917 -27.401
upperneck -25.3219 -25.5669 49.6394
head 0.306184 -17.5908 26.2276
rclavicle 1.46293e-014 1.16289e-014
rhumerus -22.3116 52.0279 -110.23
rradius 118.412
rwrist -8.49817
rhand -16.7944 -1.0343
rfingers 7.12502
rthumb 9.43369 -30.8032
lclavicle 1.46293e-014 1.16289e-014
lhumerus -70.53 -3.40157 79.4122
lradius 67.2789
lwrist 49.9354
lhand -26.8084 -6.51338
lfingers 7.12502
lthumb -0.234998 23.4662
rfemur -56.322 42.9273 -9.61767
rtibia 42.5846
rfoot 10.1543 44.3682
rtoes 37.0043
lfemur -25.8695 -15.9683 -9.15824
ltibia 43.345
lfoot 42.9681 -25.6071
ltoes 60.9848
246
root 8.47467 15.4146 20.9698 15.769 16.8394 -3.49131
lowerback -0.450293 1.58902 4.91467
upperback -6.13679 2.3026 -0.119312
thorax -5.93773 0.899392 -2.97937
lowerneck 29.5523 -15.9188 -27.7463
upperneck -24.5985 -25.3766 49.2538
head 0.503613 -17.3412 25.8505
rclavicle -8.97016e-015 -7.25564e-015
rhumerus -22.1704 52.2919 -110.281
rradius 117.72
rwrist -7.96825
rhand -16.7297 -0.646654
rfingers 7.12502
rthumb 9.49611 -30.4127
lclavicle -8.97016e-015 -7.25564e-015
lhumerus -70.682 -3.26285 79.7783
lradius 66.1256
lwrist 49.3758
lhand -27.3566 -6.38003
lfingers 7.12502
lthumb -0.764464 23.5983
rfemur -56.9773 43.0283 -10.3573
rtibia 41.7261
rfoot 11.6599 44.2361
rtoes 37.1859
lfemur -25.3977 -14.489 -9.83266
ltibia 42.7434
lfoot 41.7998 -26.6044
ltoes 60.7132
247
root 8.54254 15.4581 20.8709 15.8276 14.9815 -3.68028
lowerback -0.276234 1.37813 4.91258
upperback -6.13195 2.03903 0.129135
thorax -6.06402 0.770671 -2.71342
lowerneck 28.7627 -15.6273 -28.0868
upperneck -23.828 -25.1478 48.8711
head 0.704323 -17.0692 25.5017
rclavicle 1.53716e-014 -3.24019e-014
rhumerus -22.1782 52.475 -110.382
rradius 116.871
rwrist -7.30859
rhand -16.6027 -0.147306
rfingers 7.12502
rthumb 9.6187 -29.9077
lclavicle 1.53716e-014 -3.24019e-014
lhumerus -70.8051 -3.13488 80.2199
lradius 65.0209
lwrist 48.7543
lhand -27.7736 -6.28756
lfingers 7.12502
lthumb -1.16721 23.689
rfemur -57.3834 42.9706 -10.8
rtibia 40.8346
rfoot 12.9531 44.0271
rtoes 37.1126
lfemur -24.882 -13.0626 -10.4779
ltibia 42.0222
lfoot 40.4955 -27.6306
ltoes 60.3522
248
root 8.61076 15.5076 20.7745 15.8881 13.1326 -3.881
lowerback -0.116514 1.17719 4.89934
upperback -6.12735 1.78787 0.373457
thorax -6.1793 0.649288 -2.44393
lowerneck 27.9382 -15.3289 -28.3917
upperneck -23.0249 -24.8809 48.4904
head 0.896789 -16.7774 25.1742
rclavicle 4.4857e-014 -1.26228e-014
rhumerus -22.3048 52.5746 -110.512
rradius 115.865
rwrist -6.53587
rhand -16.4448 0.432163
rfingers 7.12502
rthumb 9.77101 -29.3212
lclavicle 4.4857e-014 -1.26228e-014
lhumerus -70.8901 -3.05768 80.737
lradius 63.9941
lwrist 48.1344
lhand -28.0491 -6.19438
lfingers 7.12502
lthumb -1.43338 23.7805
rfemur -57.5683 42.738 -10.9336
rtibia 39.9669
rfoot 13.9361 43.7624
rtoes 36.6959
lfemur -24.3665 -11.733 -11.0792
ltibia 41.2234
lfoot 39.0289 -28.6267
ltoes 59.8933
249
root 8.67879 15.5608 20.6798 15.9722 11.3095 -4.08009
lowerback 0.0107712 0.983218 4.872
upperback -6.11957 1.54327 0.606615
thorax -6.26983 0.532621 -2.17621
lowerneck 27.075 -15.0402 -28.6395
upperneck -22.2129 -24.5842 48.1133
head 1.07615 -16.4711 24.8557
rclavicle 4.03898e-014 5.97596e-015
rhumerus -22.4879 52.6078 -110.62
rradius 114.704
rwrist -5.67122
rhand -16.2741 1.07987
rfingers 7.12502
rthumb 9.93574 -28.6657
lclavicle 4.03898e-014 5.97596e-015
lhumerus -70.9272 -3.06123 81.3373
lradius 63.0797
lwrist 47.5718
lhand -28.1524 -6.13298
lfingers 7.12502
lthumb -1.53313 23.8413
rfemur -57.5591 42.3024 -10.763
rtibia 39.1749
rfoot 14.5487 43.4613
rtoes 35.8851
lfemur -23.8975 -10.5445 -11.6397
ltibia 40.3868
lfoot 37.3945 -29.5333
ltoes 59.3326
